<svg xmlns="http://www.w3.org/2000/svg" xmlns:xlink="http://www.w3.org/1999/xlink" version="1.1" data-diagram-type="SEQUENCE" style="width:1262px;height:686px;background:#FFFFFF;" width="1262px" height="686px" viewBox="0 0 1262 686" zoomAndPan="magnify" preserveAspectRatio="none" contentStyleType="text/css"><?plantuml 1.2026.7?><defs/><g font-family="sans-serif" lengthAdjust="spacing"><rect x="16" y="11" width="498.518" height="660.18" fill="#DDD" style="stroke:#181818;stroke-width:0.5;"/><text x="203.249" y="23.067" fill="#000" font-size="13" textLength="124.021" font-weight="700">ConsentManager</text><rect x="972.307" y="390.922" width="186.988" height="99.398" fill="none" style="stroke:#000;stroke-width:1.5;"/><g><title>..Consents..</title><rect x="74.741" y="122.727" width="8" height="449.859" fill="#000" fill-opacity="0"/><line x1="78.241" y1="122.727" x2="78.241" y2="572.586" style="stroke:#181818;stroke-width:0.5;stroke-dasharray:5,5;"/></g><g><title></title><rect x="73.241" y="173.859" width="10" height="380.727" fill="#FFF" style="stroke:#181818;stroke-width:1;"/></g><g><title>..Consents..</title><rect x="319.847" y="122.727" width="8" height="449.859" fill="#000" fill-opacity="0"/><line x1="323.347" y1="122.727" x2="323.347" y2="572.586" style="stroke:#181818;stroke-width:0.5;stroke-dasharray:5,5;"/></g><g><title></title><rect x="318.347" y="194.992" width="10" height="359.594" fill="#FFF" style="stroke:#181818;stroke-width:1;"/></g><g><title>..Consents..</title><rect x="521.749" y="122.727" width="8" height="449.859" fill="#000" fill-opacity="0"/><line x1="525.249" y1="122.727" x2="525.249" y2="572.586" style="stroke:#181818;stroke-width:0.5;stroke-dasharray:5,5;"/></g><g><title>..Consents..</title><rect x="794.905" y="122.727" width="8" height="449.859" fill="#000" fill-opacity="0"/><line x1="798.405" y1="122.727" x2="798.405" y2="572.586" style="stroke:#181818;stroke-width:0.5;stroke-dasharray:5,5;"/></g><g><title></title><rect x="793.405" y="286.391" width="10" height="239.063" fill="#FFF" style="stroke:#181818;stroke-width:1;"/></g><g><title>..Consents..</title><rect x="1058.438" y="122.727" width="8" height="449.859" fill="#000" fill-opacity="0"/><line x1="1061.938" y1="122.727" x2="1061.938" y2="572.586" style="stroke:#181818;stroke-width:0.5;stroke-dasharray:5,5;"/></g><g><title></title><rect x="1056.938" y="315.523" width="10" height="209.93" fill="#FFF" style="stroke:#181818;stroke-width:1;"/></g><text x="34.212" y="103.128" fill="#000" font-size="14" textLength="82.059" font-style="italic">«Consents»</text><text x="20" y="119.425" fill="#000" font-size="14" textLength="110.482">Generic Service</text><ellipse cx="78.241" cy="38.633" rx="8" ry="8" fill="#E2E2F0" style="stroke:#181818;stroke-width:0.5;"/><path d="M78.241,46.633 L78.241,73.633 M65.241,54.633 L91.241,54.633 M78.241,73.633 L65.241,88.633 M78.241,73.633 L91.241,88.633" style="stroke:#181818;stroke-width:0.5;" fill="none"/><rect x="245.024" y="75.133" width="156.646" height="46.594" fill="#E2E2F0" style="stroke:#181818;stroke-width:0.5;" rx="2.5" ry="2.5"/><text x="282.318" y="95.128" fill="#000" font-size="14" textLength="82.059" font-style="italic">«Consents»</text><text x="252.024" y="111.425" fill="#000" font-size="14" textLength="142.646">Interaction Collector</text><rect x="425.67" y="71.133" width="203.157" height="46.594" fill="#E2E2F0" style="stroke:#181818;stroke-width:0.5;"/><rect x="421.67" y="75.133" width="203.157" height="46.594" fill="#E2E2F0" style="stroke:#181818;stroke-width:0.5;"/><text x="482.219" y="95.128" fill="#000" font-size="14" textLength="82.059" font-style="italic">«Consents»</text><text x="428.67" y="111.425" fill="#000" font-size="14" textLength="189.157">InteractionCollectorStream</text><rect x="750.375" y="75.133" width="96.059" height="46.594" fill="#E2E2F0" style="stroke:#181818;stroke-width:0.5;" rx="2.5" ry="2.5"/><text x="757.375" y="95.128" fill="#000" font-size="14" textLength="82.059" font-style="italic">«Consents»</text><text x="786.729" y="111.425" fill="#000" font-size="14" textLength="23.352">PID</text><rect x="994.522" y="75.133" width="134.832" height="46.594" fill="#E2E2F0" style="stroke:#181818;stroke-width:0.5;" rx="2.5" ry="2.5"/><text x="1020.909" y="95.128" fill="#000" font-size="14" textLength="82.059" font-style="italic">«Consents»</text><text x="1001.522" y="111.425" fill="#000" font-size="14" textLength="120.832">PersonAggregate</text><text x="34.212" y="585.581" fill="#000" font-size="14" textLength="82.059" font-style="italic">«Consents»</text><text x="20" y="601.878" fill="#000" font-size="14" textLength="110.482">Generic Service</text><ellipse cx="78.241" cy="613.68" rx="8" ry="8" fill="#E2E2F0" style="stroke:#181818;stroke-width:0.5;"/><path d="M78.241,621.68 L78.241,648.68 M65.241,629.68 L91.241,629.68 M78.241,648.68 L65.241,663.68 M78.241,648.68 L91.241,663.68" style="stroke:#181818;stroke-width:0.5;" fill="none"/><rect x="245.024" y="572.586" width="156.646" height="46.594" fill="#E2E2F0" style="stroke:#181818;stroke-width:0.5;" rx="2.5" ry="2.5"/><text x="282.318" y="592.581" fill="#000" font-size="14" textLength="82.059" font-style="italic">«Consents»</text><text x="252.024" y="608.878" fill="#000" font-size="14" textLength="142.646">Interaction Collector</text><rect x="425.67" y="572.586" width="203.157" height="46.594" fill="#E2E2F0" style="stroke:#181818;stroke-width:0.5;"/><rect x="421.67" y="576.586" width="203.157" height="46.594" fill="#E2E2F0" style="stroke:#181818;stroke-width:0.5;"/><text x="482.219" y="596.581" fill="#000" font-size="14" textLength="82.059" font-style="italic">«Consents»</text><text x="428.67" y="612.878" fill="#000" font-size="14" textLength="189.157">InteractionCollectorStream</text><rect x="750.375" y="572.586" width="96.059" height="46.594" fill="#E2E2F0" style="stroke:#181818;stroke-width:0.5;" rx="2.5" ry="2.5"/><text x="757.375" y="592.581" fill="#000" font-size="14" textLength="82.059" font-style="italic">«Consents»</text><text x="786.729" y="608.878" fill="#000" font-size="14" textLength="23.352">PID</text><rect x="994.522" y="572.586" width="134.832" height="46.594" fill="#E2E2F0" style="stroke:#181818;stroke-width:0.5;" rx="2.5" ry="2.5"/><text x="1020.909" y="592.581" fill="#000" font-size="14" textLength="82.059" font-style="italic">«Consents»</text><text x="1001.522" y="608.878" fill="#000" font-size="14" textLength="120.832">PersonAggregate</text><rect x="10" y="151.293" width="1241.41" height="3" fill="#EEE" style="stroke:#EEE;stroke-width:1;"/><line x1="10" y1="151.293" x2="1251.41" y2="151.293" style="stroke:#000;stroke-width:1;"/><line x1="10" y1="154.293" x2="1251.41" y2="154.293" style="stroke:#000;stroke-width:1;"/><rect x="511.58" y="140.727" width="238.25" height="23.133" fill="#EEE" style="stroke:#000;stroke-width:2;"/><text x="517.58" y="156.793" fill="#000" font-size="13" textLength="219.724" font-weight="700">Identify person on interaction</text><polygon points="306.347,190.992,316.347,194.992,306.347,198.992,310.347,194.992" fill="#181818" style="stroke:#181818;stroke-width:1;stroke-linejoin:miter;stroke-miterlimit:10;"/><line x1="83.241" y1="194.992" x2="312.347" y2="194.992" style="stroke:#181818;stroke-width:1;"/><text x="90.241" y="189.926" fill="#000" font-size="13" textLength="216.106">PostInteraction(InteractionEvent)</text><polygon points="151.176,207.992,495.176,207.992,505.176,218.992,495.176,230.992,151.176,230.992,141.176,218.992,151.176,207.992" fill="#FEFFDD" style="stroke:#181818;stroke-width:0.5;stroke-linejoin:miter;stroke-miterlimit:10;"/><text x="153.176" y="224.059" fill="#000" font-size="13" textLength="340.342">do: create an interaction event based on interaction</text><line x1="523.249" y1="257.258" x2="513.249" y2="253.258" style="stroke:#181818;stroke-width:1;"/><line x1="523.249" y1="257.258" x2="513.249" y2="261.258" style="stroke:#181818;stroke-width:1;"/><line x1="328.347" y1="257.258" x2="524.249" y2="257.258" style="stroke:#181818;stroke-width:1;"/><text x="335.347" y="252.192" fill="#000" font-size="13" textLength="107.771">InteractionEvent</text><line x1="791.405" y1="286.391" x2="781.405" y2="282.391" style="stroke:#181818;stroke-width:1;"/><line x1="791.405" y1="286.391" x2="781.405" y2="290.391" style="stroke:#181818;stroke-width:1;"/><line x1="525.249" y1="286.391" x2="792.405" y2="286.391" style="stroke:#181818;stroke-width:1;"/><text x="532.249" y="281.325" fill="#000" font-size="13" textLength="244.156">OnInteractionEvent(InteractionEvent)</text><polygon points="1044.938,311.523,1054.938,315.523,1044.938,319.523,1048.938,315.523" fill="#181818" style="stroke:#181818;stroke-width:1;stroke-linejoin:miter;stroke-miterlimit:10;"/><line x1="803.405" y1="315.523" x2="1050.938" y2="315.523" style="stroke:#181818;stroke-width:1;"/><text x="810.405" y="310.458" fill="#000" font-size="13" textLength="234.533">IdentifyPerson(IdentityMatchingSet)</text><polygon points="887.466,328.523,1235.466,328.523,1245.466,354.523,1235.466,381.523,887.466,381.523,877.466,354.523,887.466,328.523" fill="#FEFFDD" style="stroke:#181818;stroke-width:0.5;stroke-linejoin:miter;stroke-miterlimit:10;"/><text x="889.466" y="344.59" fill="#000" font-size="13" textLength="20.585">do:</text><text x="905.995" y="359.723" fill="#000" font-size="13" textLength="116.994">normalize contact</text><text x="905.995" y="374.856" fill="#000" font-size="13" textLength="328.415">identify a person based on the normalized contact</text><path d="M972.307,390.922 L1036.75,390.922 L1036.75,398.055 L1026.75,408.055 L972.307,408.055 L972.307,390.922" style="stroke:#000;stroke-width:1.5;" fill="#EEE"/><rect x="972.307" y="390.922" width="186.988" height="99.398" fill="none" style="stroke:#000;stroke-width:1.5;"/><text x="987.307" y="403.989" fill="#000" font-size="13" textLength="19.443" font-weight="700">alt</text><text x="1051.75" y="403.132" fill="#000" font-size="11" textLength="91.545" font-weight="700">[PersonFound]</text><polygon points="1003.307,423.055,1120.307,423.055,1130.307,434.055,1120.307,446.055,1003.307,446.055,993.307,434.055,1003.307,423.055" fill="#FEFFDD" style="stroke:#181818;stroke-width:0.5;stroke-linejoin:miter;stroke-miterlimit:10;"/><text x="1005.307" y="439.122" fill="#000" font-size="13" textLength="113.261">do: return Person</text><line x1="972.307" y1="452.188" x2="1159.295" y2="452.188" style="stroke:#000;stroke-width:1;stroke-dasharray:2,2;"/><polygon points="1009.281,462.188,1114.281,462.188,1124.281,473.188,1114.281,485.188,1009.281,485.188,999.281,473.188,1009.281,462.188" fill="#FEFFDD" style="stroke:#181818;stroke-width:0.5;stroke-linejoin:miter;stroke-miterlimit:10;"/><text x="1011.281" y="478.254" fill="#000" font-size="13" textLength="101.315">do: return Error</text><polygon points="814.405,521.453,804.405,525.453,814.405,529.453,810.405,525.453" fill="#181818" style="stroke:#181818;stroke-width:1;stroke-linejoin:miter;stroke-miterlimit:10;"/><line x1="808.405" y1="525.453" x2="1055.938" y2="525.453" style="stroke:#181818;stroke-width:1;stroke-dasharray:2,2;"/><text x="820.405" y="520.387" fill="#000" font-size="13" textLength="44.148">Person</text><polygon points="94.241,550.586,84.241,554.586,94.241,558.586,90.241,554.586" fill="#181818" style="stroke:#181818;stroke-width:1;stroke-linejoin:miter;stroke-miterlimit:10;"/><line x1="88.241" y1="554.586" x2="317.347" y2="554.586" style="stroke:#181818;stroke-width:1;stroke-dasharray:2,2;"/><text x="100.241" y="549.52" fill="#000" font-size="13" textLength="111.281">InteractionResult</text><?plantuml-src hLJ1RiCW3BtdAwoSEatvWMYDD6tTr4ErQlq2HhmKAJKLq6ZRrmy8pG9DgXw6SWZu-Tdu6I-NiAwHZFZyXYCgBGdi9yYWOjm8-xzSPjc7_8ByIPAso0qZrg3ACx3BOgI2_1K9bU2mGzK9ZZam3U4i7C73G_3NLULTZqmPmSMHaO5yFGhu9DiM7Q-d6La6Gqo6L8DDCEEzsG9rH3YuxOn2TfXbxSqnTvJaTltidRU-Jg5iWZF7ig9645vpzawFJQEmOGP7HCDPx9svz3ft75SoImfRLDCrkhylOIkr6HaNe_zLP-FSUINs96qKsQ6QPFAOMfR0RNqiaCNzWOu8FfZ6EcaTx-ZKyG7yRZBJeggk2592clKiKr3GySrhLC8RfOmpXGaTtgimppXWhpH6KLsexGGwlxtUjkYtvdl33DyBQdOuoYIHAg6BO5QjQEyMINLWhVX1u9AClTO5Gfm70JkFWa5LiyS_WdgI8HPwA5zhGgOlyaJrHSmRBtHkGONcf2X0Bn3JAM2hyP_YhfGAx-66iAFRfj8NHNMrMOeolMADjpJYzFEomTAPKKIlwXtrgJLPDWgIp9nV?></g></svg>