<?xml version="1.0" encoding="us-ascii" standalone="no"?><svg xmlns="http://www.w3.org/2000/svg" xmlns:xlink="http://www.w3.org/1999/xlink" contentStyleType="text/css" height="653px" preserveAspectRatio="none" style="width:1217px;height:653px;background:#FFFFFF;" version="1.1" viewBox="0 0 1217 653" width="1217px" zoomAndPan="magnify"><defs/><g><rect fill="#DDDDDD" height="641.1797" style="stroke:#181818;stroke-width:0.5;" width="389.5" x="1" y="6"/><text fill="#000000" font-family="sans-serif" font-size="13" font-weight="bold" lengthAdjust="spacing" textLength="128" x="131.75" y="18.0669">ConsentManager</text><rect fill="#FFFFFF" height="405.8594" style="stroke:#181818;stroke-width:1.0;" width="10" x="59.5" y="127.7266"/><rect fill="#FFFFFF" height="341.5938" style="stroke:#181818;stroke-width:1.0;" width="10" x="299.5" y="191.9922"/><rect fill="#FFFFFF" height="221.0625" style="stroke:#181818;stroke-width:1.0;" width="10" x="762" y="283.3906"/><rect fill="#FFFFFF" height="191.9297" style="stroke:#181818;stroke-width:1.0;" width="10" x="1019" y="312.5234"/><rect fill="none" height="85.3984" style="stroke:#000000;stroke-width:1.5;" width="183" x="946" y="390.9219"/><line style="stroke:#181818;stroke-width:0.5;stroke-dasharray:5.0,5.0;" x1="64" x2="64" y1="117.7266" y2="551.5859"/><line style="stroke:#181818;stroke-width:0.5;stroke-dasharray:5.0,5.0;" x1="304.5" x2="304.5" y1="117.7266" y2="551.5859"/><line style="stroke:#181818;stroke-width:0.5;stroke-dasharray:5.0,5.0;" x1="504.5" x2="504.5" y1="117.7266" y2="551.5859"/><line style="stroke:#181818;stroke-width:0.5;stroke-dasharray:5.0,5.0;" x1="766.5" x2="766.5" y1="117.7266" y2="551.5859"/><line style="stroke:#181818;stroke-width:0.5;stroke-dasharray:5.0,5.0;" x1="1023.5" x2="1023.5" y1="117.7266" y2="551.5859"/><text fill="#000000" font-family="sans-serif" font-size="14" font-style="italic" lengthAdjust="spacing" textLength="83" x="20" y="98.1279">&#171;Consents&#187;</text><text fill="#000000" font-family="sans-serif" font-size="14" lengthAdjust="spacing" textLength="113" x="5" y="114.4248">Generic Service</text><ellipse cx="64.5" cy="33.6328" fill="#E2E2F0" rx="8" ry="8" style="stroke:#181818;stroke-width:0.5;"/><path d="M64.5,41.6328 L64.5,68.6328 M51.5,49.6328 L77.5,49.6328 M64.5,68.6328 L51.5,83.6328 M64.5,68.6328 L77.5,83.6328 " fill="none" style="stroke:#181818;stroke-width:0.5;"/><text fill="#000000" font-family="sans-serif" font-size="14" font-style="italic" lengthAdjust="spacing" textLength="83" x="20" y="563.5811">&#171;Consents&#187;</text><text fill="#000000" font-family="sans-serif" font-size="14" lengthAdjust="spacing" textLength="113" x="5" y="579.8779">Generic Service</text><ellipse cx="64.5" cy="591.6797" fill="#E2E2F0" rx="8" ry="8" style="stroke:#181818;stroke-width:0.5;"/><path d="M64.5,599.6797 L64.5,626.6797 M51.5,607.6797 L77.5,607.6797 M64.5,626.6797 L51.5,641.6797 M64.5,626.6797 L77.5,641.6797 " fill="none" style="stroke:#181818;stroke-width:0.5;"/><rect fill="#E2E2F0" height="46.5938" rx="2.5" ry="2.5" style="stroke:#181818;stroke-width:0.5;" width="164" x="222.5" y="70.1328"/><text fill="#000000" font-family="sans-serif" font-size="14" font-style="italic" lengthAdjust="spacing" textLength="83" x="263" y="90.1279">&#171;Consents&#187;</text><text fill="#000000" font-family="sans-serif" font-size="14" lengthAdjust="spacing" textLength="150" x="229.5" y="106.4248">Interaction Collector</text><rect fill="#E2E2F0" height="46.5938" rx="2.5" ry="2.5" style="stroke:#181818;stroke-width:0.5;" width="164" x="222.5" y="550.5859"/><text fill="#000000" font-family="sans-serif" font-size="14" font-style="italic" lengthAdjust="spacing" textLength="83" x="263" y="570.5811">&#171;Consents&#187;</text><text fill="#000000" font-family="sans-serif" font-size="14" lengthAdjust="spacing" textLength="150" x="229.5" y="586.8779">Interaction Collector</text><rect fill="#E2E2F0" height="46.5938" style="stroke:#181818;stroke-width:0.5;" width="213" x="400.5" y="66.1328"/><rect fill="#E2E2F0" height="46.5938" style="stroke:#181818;stroke-width:0.5;" width="213" x="396.5" y="70.1328"/><text fill="#000000" font-family="sans-serif" font-size="14" font-style="italic" lengthAdjust="spacing" textLength="83" x="461.5" y="90.1279">&#171;Consents&#187;</text><text fill="#000000" font-family="sans-serif" font-size="14" lengthAdjust="spacing" textLength="199" x="403.5" y="106.4248">InteractionCollectorStream</text><rect fill="#E2E2F0" height="46.5938" style="stroke:#181818;stroke-width:0.5;" width="213" x="400.5" y="550.5859"/><rect fill="#E2E2F0" height="46.5938" style="stroke:#181818;stroke-width:0.5;" width="213" x="396.5" y="554.5859"/><text fill="#000000" font-family="sans-serif" font-size="14" font-style="italic" lengthAdjust="spacing" textLength="83" x="461.5" y="574.5811">&#171;Consents&#187;</text><text fill="#000000" font-family="sans-serif" font-size="14" lengthAdjust="spacing" textLength="199" x="403.5" y="590.8779">InteractionCollectorStream</text><rect fill="#E2E2F0" height="46.5938" rx="2.5" ry="2.5" style="stroke:#181818;stroke-width:0.5;" width="97" x="718.5" y="70.1328"/><text fill="#000000" font-family="sans-serif" font-size="14" font-style="italic" lengthAdjust="spacing" textLength="83" x="725.5" y="90.1279">&#171;Consents&#187;</text><text fill="#000000" font-family="sans-serif" font-size="14" lengthAdjust="spacing" textLength="24" x="755" y="106.4248">PID</text><rect fill="#E2E2F0" height="46.5938" rx="2.5" ry="2.5" style="stroke:#181818;stroke-width:0.5;" width="97" x="718.5" y="550.5859"/><text fill="#000000" font-family="sans-serif" font-size="14" font-style="italic" lengthAdjust="spacing" textLength="83" x="725.5" y="570.5811">&#171;Consents&#187;</text><text fill="#000000" font-family="sans-serif" font-size="14" lengthAdjust="spacing" textLength="24" x="755" y="586.8779">PID</text><rect fill="#E2E2F0" height="46.5938" rx="2.5" ry="2.5" style="stroke:#181818;stroke-width:0.5;" width="139" x="954.5" y="70.1328"/><text fill="#000000" font-family="sans-serif" font-size="14" font-style="italic" lengthAdjust="spacing" textLength="83" x="982.5" y="90.1279">&#171;Consents&#187;</text><text fill="#000000" font-family="sans-serif" font-size="14" lengthAdjust="spacing" textLength="125" x="961.5" y="106.4248">PersonAggregate</text><rect fill="#E2E2F0" height="46.5938" rx="2.5" ry="2.5" style="stroke:#181818;stroke-width:0.5;" width="139" x="954.5" y="550.5859"/><text fill="#000000" font-family="sans-serif" font-size="14" font-style="italic" lengthAdjust="spacing" textLength="83" x="982.5" y="570.5811">&#171;Consents&#187;</text><text fill="#000000" font-family="sans-serif" font-size="14" lengthAdjust="spacing" textLength="125" x="961.5" y="586.8779">PersonAggregate</text><rect fill="#FFFFFF" height="405.8594" style="stroke:#181818;stroke-width:1.0;" width="10" x="59.5" y="127.7266"/><rect fill="#FFFFFF" height="341.5938" style="stroke:#181818;stroke-width:1.0;" width="10" x="299.5" y="191.9922"/><rect fill="#FFFFFF" height="221.0625" style="stroke:#181818;stroke-width:1.0;" width="10" x="762" y="283.3906"/><rect fill="#FFFFFF" height="191.9297" style="stroke:#181818;stroke-width:1.0;" width="10" x="1019" y="312.5234"/><rect fill="#EEEEEE" height="3" style="stroke:#EEEEEE;stroke-width:1.0;" width="1210" x="0" y="148.293"/><line style="stroke:#000000;stroke-width:1.0;" x1="0" x2="1210" y1="148.293" y2="148.293"/><line style="stroke:#000000;stroke-width:1.0;" x1="0" x2="1210" y1="151.293" y2="151.293"/><rect fill="#EEEEEE" height="23.1328" style="stroke:#000000;stroke-width:2.0;" width="249" x="480.5" y="137.7266"/><text fill="#000000" font-family="sans-serif" font-size="13" font-weight="bold" lengthAdjust="spacing" textLength="230" x="486.5" y="153.7935">Identify person on interaction</text><polygon fill="#181818" points="287.5,187.9922,297.5,191.9922,287.5,195.9922,291.5,191.9922" style="stroke:#181818;stroke-width:1.0;"/><line style="stroke:#181818;stroke-width:1.0;" x1="69.5" x2="293.5" y1="191.9922" y2="191.9922"/><text fill="#000000" font-family="sans-serif" font-size="13" lengthAdjust="spacing" textLength="211" x="76.5" y="186.9263">PostInteraction(InteractionEvent)</text><polygon fill="#FEFFDD" points="135,204.9922,473,204.9922,483,215.9922,473,227.9922,135,227.9922,125,215.9922,135,204.9922" style="stroke:#181818;stroke-width:0.5;"/><text fill="#000000" font-family="sans-serif" font-size="13" lengthAdjust="spacing" textLength="334" x="137" y="221.0591">do: create an interaction event based on interaction</text><line style="stroke:#181818;stroke-width:1.0;" x1="503" x2="493" y1="254.2578" y2="250.2578"/><line style="stroke:#181818;stroke-width:1.0;" x1="503" x2="493" y1="254.2578" y2="258.2578"/><line style="stroke:#181818;stroke-width:1.0;" x1="309.5" x2="504" y1="254.2578" y2="254.2578"/><text fill="#000000" font-family="sans-serif" font-size="13" lengthAdjust="spacing" textLength="105" x="316.5" y="249.1919">InteractionEvent</text><line style="stroke:#181818;stroke-width:1.0;" x1="760" x2="750" y1="283.3906" y2="279.3906"/><line style="stroke:#181818;stroke-width:1.0;" x1="760" x2="750" y1="283.3906" y2="287.3906"/><line style="stroke:#181818;stroke-width:1.0;" x1="505" x2="761" y1="283.3906" y2="283.3906"/><text fill="#000000" font-family="sans-serif" font-size="13" lengthAdjust="spacing" textLength="238" x="512" y="278.3247">OnInteractionEvent(InteractionEvent)</text><polygon fill="#181818" points="1007,308.5234,1017,312.5234,1007,316.5234,1011,312.5234" style="stroke:#181818;stroke-width:1.0;"/><line style="stroke:#181818;stroke-width:1.0;" x1="772" x2="1013" y1="312.5234" y2="312.5234"/><text fill="#000000" font-family="sans-serif" font-size="13" lengthAdjust="spacing" textLength="228" x="779" y="307.4575">IdentifyPerson(IdentityMatchingSet)</text><polygon fill="#FEFFDD" points="852,325.5234,1195,325.5234,1205,351.5234,1195,378.5234,852,378.5234,842,351.5234,852,325.5234" style="stroke:#181818;stroke-width:0.5;"/><text fill="#000000" font-family="sans-serif" font-size="13" lengthAdjust="spacing" textLength="21" x="854" y="341.5903">do:</text><text fill="#000000" font-family="sans-serif" font-size="13" lengthAdjust="spacing" textLength="115" x="870" y="356.7231">normalize contact</text><text fill="#000000" font-family="sans-serif" font-size="13" lengthAdjust="spacing" textLength="323" x="870" y="371.856">identify a person based on the normalized contact</text><path d="M946,390.9219 L1012,390.9219 L1012,398.0547 L1002,408.0547 L946,408.0547 L946,390.9219 " fill="#EEEEEE" style="stroke:#000000;stroke-width:1.5;"/><rect fill="none" height="85.3984" style="stroke:#000000;stroke-width:1.5;" width="183" x="946" y="390.9219"/><text fill="#000000" font-family="sans-serif" font-size="13" font-weight="bold" lengthAdjust="spacing" textLength="21" x="961" y="403.9888">alt</text><text fill="#000000" font-family="sans-serif" font-size="11" font-weight="bold" lengthAdjust="spacing" textLength="97" x="1027" y="403.1323">[PersonFound]</text><polygon fill="#FEFFDD" points="966,413.0547,1082,413.0547,1092,424.0547,1082,436.0547,966,436.0547,956,424.0547,966,413.0547" style="stroke:#181818;stroke-width:0.5;"/><text fill="#000000" font-family="sans-serif" font-size="13" lengthAdjust="spacing" textLength="112" x="968" y="429.1216">do: return Person</text><line style="stroke:#000000;stroke-width:1.0;stroke-dasharray:2.0,2.0;" x1="946" x2="1129" y1="442.1875" y2="442.1875"/><polygon fill="#FEFFDD" points="972,448.1875,1075,448.1875,1085,459.1875,1075,471.1875,972,471.1875,962,459.1875,972,448.1875" style="stroke:#181818;stroke-width:0.5;"/><text fill="#000000" font-family="sans-serif" font-size="13" lengthAdjust="spacing" textLength="99" x="974" y="464.2544">do: return Error</text><polygon fill="#181818" points="778,500.4531,768,504.4531,778,508.4531,774,504.4531" style="stroke:#181818;stroke-width:1.0;"/><line style="stroke:#181818;stroke-width:1.0;stroke-dasharray:2.0,2.0;" x1="772" x2="1023" y1="504.4531" y2="504.4531"/><text fill="#000000" font-family="sans-serif" font-size="13" lengthAdjust="spacing" textLength="44" x="784" y="499.3872">Person</text><polygon fill="#181818" points="75.5,529.5859,65.5,533.5859,75.5,537.5859,71.5,533.5859" style="stroke:#181818;stroke-width:1.0;"/><line style="stroke:#181818;stroke-width:1.0;stroke-dasharray:2.0,2.0;" x1="69.5" x2="303.5" y1="533.5859" y2="533.5859"/><text fill="#000000" font-family="sans-serif" font-size="13" lengthAdjust="spacing" textLength="108" x="81.5" y="528.52">InteractionResult</text><!--SRC=[hLJ1RiCW3BtdAwoSEatvWMYDD6tTr4ErQlq2HhmKAJKLq6ZRrmy8pG9DgXw6SWZu-TdusIoNiAwHZFZyXYCgBGdi9yYWOjm8-xzSPjc7_8ByIPAso0qZrg3ACx3BOgI2_1K9bU2mGzK9ZZam3U4i7C73G_3NLULTZqmPmSMHaO5yFGhu9DiM7Q-d6La6Gqo6L8DDCEEzsG9rH3YuxOn2TfXbxSqnTvJaTltidRU-Jg5iWZF7ig9645vpzawFJQEmOGP7HCDPx9svz3ft75SoImfRLDCrkhylOIkr6HaNe_zLP-FSUINs96qKsQ6QPFAOMfR0RNqiaCNzWOu8FfZ6EcaTx-ZKyG7yRZBJeggk2592clKiKr3GySrhLC8RfOmpXGaTtgimppXWhpH6KLsexGGwprvlM_HRyxrXXky5DJiSPP98bT15CAjMj7UBf3gmLlmWS4d6Nki28SuF0Ji_1OEgPez_1FKaGopqKBxMX4nVv8dgYvWtNkZSWWhDIL60NY2cKy1Mup_5NIaLvk66iAFRfj8NHNMrMOeolMADjpJYz7ZPOEcRKKHJzOxwr9ei6mM97Nu1]--></g></svg>