<?xml version="1.0" encoding="UTF-8" standalone="no"?><svg xmlns="http://www.w3.org/2000/svg" xmlns:xlink="http://www.w3.org/1999/xlink" contentScriptType="application/ecmascript" contentStyleType="text/css" height="380px" preserveAspectRatio="none" style="width:177px;height:380px;" version="1.1" viewBox="0 0 177 380" width="177px" zoomAndPan="magnify"><defs><filter height="300%" id="fgislj18il9za" width="300%" x="-1" y="-1"><feGaussianBlur result="blurOut" stdDeviation="2.0"/><feColorMatrix in="blurOut" result="blurOut2" type="matrix" values="0 0 0 0 0 0 0 0 0 0 0 0 0 0 0 0 0 0 .4 0"/><feOffset dx="4.0" dy="4.0" in="blurOut2" result="blurOut3"/><feBlend in="SourceGraphic" in2="blurOut3" mode="normal"/></filter></defs><g><rect fill="#FFFFFF" filter="url(#fgislj18il9za)" height="154.7969" style="stroke: #A80036; stroke-width: 1.0;" width="10" x="79" y="112.5938"/><line style="stroke: #A80036; stroke-width: 1.0; stroke-dasharray: 5.0,5.0;" x1="84" x2="84" y1="102.5938" y2="277.3906"/><text fill="#000000" font-family="sans-serif" font-size="14" font-style="italic" lengthAdjust="spacingAndGlyphs" textLength="38" x="62" y="82.9951">«My»</text><text fill="#000000" font-family="sans-serif" font-size="14" lengthAdjust="spacingAndGlyphs" textLength="90" x="36" y="99.292">Main Service</text><ellipse cx="84" cy="13" fill="#FEFECE" filter="url(#fgislj18il9za)" rx="8" ry="8" style="stroke: #A80036; stroke-width: 2.0;"/><path d="M84,21 L84,48 M71,29 L97,29 M84,48 L71,63 M84,48 L97,63 " fill="none" filter="url(#fgislj18il9za)" style="stroke: #A80036; stroke-width: 2.0;"/><text fill="#000000" font-family="sans-serif" font-size="14" font-style="italic" lengthAdjust="spacingAndGlyphs" textLength="38" x="62" y="289.3857">«My»</text><text fill="#000000" font-family="sans-serif" font-size="14" lengthAdjust="spacingAndGlyphs" textLength="90" x="36" y="305.6826">Main Service</text><ellipse cx="84" cy="318.9844" fill="#FEFECE" filter="url(#fgislj18il9za)" rx="8" ry="8" style="stroke: #A80036; stroke-width: 2.0;"/><path d="M84,326.9844 L84,353.9844 M71,334.9844 L97,334.9844 M84,353.9844 L71,368.9844 M84,353.9844 L97,368.9844 " fill="none" filter="url(#fgislj18il9za)" style="stroke: #A80036; stroke-width: 2.0;"/><rect fill="#FFFFFF" filter="url(#fgislj18il9za)" height="154.7969" style="stroke: #A80036; stroke-width: 1.0;" width="10" x="79" y="112.5938"/><rect fill="#EEEEEE" filter="url(#fgislj18il9za)" height="3" style="stroke: #EEEEEE; stroke-width: 1.0;" width="162" x="3" y="133.1602"/><line style="stroke: #000000; stroke-width: 1.0;" x1="3" x2="165" y1="133.1602" y2="133.1602"/><line style="stroke: #000000; stroke-width: 1.0;" x1="3" x2="165" y1="136.1602" y2="136.1602"/><rect fill="#EEEEEE" filter="url(#fgislj18il9za)" height="23.1328" style="stroke: #000000; stroke-width: 2.0;" width="40" x="64" y="122.5938"/><text fill="#000000" font-family="sans-serif" font-size="13" font-weight="bold" lengthAdjust="spacingAndGlyphs" textLength="21" x="70" y="138.6606">Do</text><polygon fill="#FBFB77" filter="url(#fgislj18il9za)" points="33,160.7266,134,160.7266,144,171.7266,134,183.7266,33,183.7266,23,171.7266,33,160.7266" style="stroke: #A80036; stroke-width: 1.0;"/><text fill="#000000" font-family="sans-serif" font-size="13" lengthAdjust="spacingAndGlyphs" textLength="97" x="35" y="176.7935">do: Some work</text><polygon fill="#FBFB77" filter="url(#fgislj18il9za)" points="18,193.8594,150,193.8594,160,227.8594,150,261.8594,18,261.8594,8,227.8594,18,193.8594" style="stroke: #A80036; stroke-width: 1.0;"/><text fill="#000000" font-family="sans-serif" font-size="13" lengthAdjust="spacingAndGlyphs" textLength="21" x="20" y="209.9263">do:</text><text fill="#000000" font-family="sans-serif" font-size="13" lengthAdjust="spacingAndGlyphs" textLength="60" x="36" y="225.0591">one thing</text><text fill="#000000" font-family="sans-serif" font-size="13" lengthAdjust="spacingAndGlyphs" textLength="70" x="36" y="240.1919">other thing</text><text fill="#000000" font-family="sans-serif" font-size="13" lengthAdjust="spacingAndGlyphs" textLength="112" x="36" y="255.3247">and the last thing</text><!--MD5=[49511527371a17ab0867a67d10d86278]
@startuml


== Do ==

actor "Main Service" as MainService <<My>>

activate MainService
hnote over MainService
do: Some work
end hnote
hnote over MainService
do:
    one thing
    other thing
    and the last thing
end hnote

deactivate MainService
@enduml

PlantUML version 1.2020.18beta4(Unknown compile time)
(GPL source distribution)
Java Runtime: Java(TM) SE Runtime Environment
JVM: Java HotSpot(TM) 64-Bit Server VM
Default Encoding: UTF-8
Language: en
Country: US
--></g></svg>