<?xml version="1.0" encoding="UTF-8" standalone="no"?><svg xmlns="http://www.w3.org/2000/svg" xmlns:xlink="http://www.w3.org/1999/xlink" contentScriptType="application/ecmascript" contentStyleType="text/css" height="366px" preserveAspectRatio="none" style="width:223px;height:366px;" version="1.1" viewBox="0 0 223 366" width="223px" zoomAndPan="magnify"><defs><filter height="300%" id="fubnnswppqt63" width="300%" x="-1" y="-1"><feGaussianBlur result="blurOut" stdDeviation="2.0"/><feColorMatrix in="blurOut" result="blurOut2" type="matrix" values="0 0 0 0 0 0 0 0 0 0 0 0 0 0 0 0 0 0 .4 0"/><feOffset dx="4.0" dy="4.0" in="blurOut2" result="blurOut3"/><feBlend in="SourceGraphic" in2="blurOut3" mode="normal"/></filter></defs><g><rect fill="#FFFFFF" filter="url(#fubnnswppqt63)" height="140.5313" style="stroke: #A80036; stroke-width: 1.0;" width="10" x="91" y="112.5938"/><rect fill="#FFFFFF" filter="url(#fubnnswppqt63)" height="83.3984" style="stroke: #000000; stroke-width: 2.0;" width="188" x="12" y="162.7266"/><line style="stroke: #A80036; stroke-width: 1.0; stroke-dasharray: 5.0,5.0;" x1="96" x2="96" y1="102.5938" y2="263.125"/><text fill="#000000" font-family="sans-serif" font-size="14" font-style="italic" lengthAdjust="spacingAndGlyphs" textLength="38" x="74" y="82.9951">«My»</text><text fill="#000000" font-family="sans-serif" font-size="14" lengthAdjust="spacingAndGlyphs" textLength="90" x="48" y="99.292">Main Service</text><ellipse cx="96" cy="13" fill="#FEFECE" filter="url(#fubnnswppqt63)" rx="8" ry="8" style="stroke: #A80036; stroke-width: 2.0;"/><path d="M96,21 L96,48 M83,29 L109,29 M96,48 L83,63 M96,48 L109,63 " fill="none" filter="url(#fubnnswppqt63)" style="stroke: #A80036; stroke-width: 2.0;"/><text fill="#000000" font-family="sans-serif" font-size="14" font-style="italic" lengthAdjust="spacingAndGlyphs" textLength="38" x="74" y="275.1201">«My»</text><text fill="#000000" font-family="sans-serif" font-size="14" lengthAdjust="spacingAndGlyphs" textLength="90" x="48" y="291.417">Main Service</text><ellipse cx="96" cy="304.7188" fill="#FEFECE" filter="url(#fubnnswppqt63)" rx="8" ry="8" style="stroke: #A80036; stroke-width: 2.0;"/><path d="M96,312.7188 L96,339.7188 M83,320.7188 L109,320.7188 M96,339.7188 L83,354.7188 M96,339.7188 L109,354.7188 " fill="none" filter="url(#fubnnswppqt63)" style="stroke: #A80036; stroke-width: 2.0;"/><rect fill="#FFFFFF" filter="url(#fubnnswppqt63)" height="140.5313" style="stroke: #A80036; stroke-width: 1.0;" width="10" x="91" y="112.5938"/><rect fill="#EEEEEE" filter="url(#fubnnswppqt63)" height="3" style="stroke: #EEEEEE; stroke-width: 1.0;" width="208" x="3" y="133.1602"/><line style="stroke: #000000; stroke-width: 1.0;" x1="3" x2="211" y1="133.1602" y2="133.1602"/><line style="stroke: #000000; stroke-width: 1.0;" x1="3" x2="211" y1="136.1602" y2="136.1602"/><rect fill="#EEEEEE" filter="url(#fubnnswppqt63)" height="23.1328" style="stroke: #000000; stroke-width: 2.0;" width="65" x="74.5" y="122.5938"/><text fill="#000000" font-family="sans-serif" font-size="13" font-weight="bold" lengthAdjust="spacingAndGlyphs" textLength="46" x="80.5" y="138.6606">Group</text><path d="M12,162.7266 L195,162.7266 L195,169.7266 L185,179.7266 L12,179.7266 L12,162.7266 " fill="#EEEEEE" style="stroke: #000000; stroke-width: 1.0;"/><rect fill="none" height="83.3984" style="stroke: #000000; stroke-width: 2.0;" width="188" x="12" y="162.7266"/><text fill="#000000" font-family="sans-serif" font-size="13" font-weight="bold" lengthAdjust="spacingAndGlyphs" textLength="138" x="27" y="175.7935">Grouped together</text><polygon fill="#FBFB77" filter="url(#fubnnswppqt63)" points="47,184.8594,144,184.8594,154,195.8594,144,207.8594,47,207.8594,37,195.8594,47,184.8594" style="stroke: #A80036; stroke-width: 1.0;"/><text fill="#000000" font-family="sans-serif" font-size="13" lengthAdjust="spacingAndGlyphs" textLength="93" x="49" y="200.9263">do: something</text><polygon fill="#FBFB77" filter="url(#fubnnswppqt63)" points="32,217.9922,159,217.9922,169,228.9922,159,240.9922,32,240.9922,22,228.9922,32,217.9922" style="stroke: #A80036; stroke-width: 1.0;"/><text fill="#000000" font-family="sans-serif" font-size="13" lengthAdjust="spacingAndGlyphs" textLength="123" x="34" y="234.0591">do: something else</text><!--MD5=[6ecc4b96977394be8b38db552b849904]
@startuml


== Group ==

actor "Main Service" as MainService <<My>>

activate MainService
group Grouped together
    hnote over MainService
    do: something
    end hnote
    hnote over MainService
    do: something else
    end hnote
end

deactivate MainService
@enduml

PlantUML version 1.2020.17(Sat Sep 19 12:30:11 UTC 2020)
(GPL source distribution)
Java Runtime: Java(TM) SE Runtime Environment
JVM: Java HotSpot(TM) 64-Bit Server VM
Default Encoding: UTF-8
Language: en
Country: US
--></g></svg>