<?xml version="1.0" encoding="UTF-8" standalone="no"?><svg xmlns="http://www.w3.org/2000/svg" xmlns:xlink="http://www.w3.org/1999/xlink" contentScriptType="application/ecmascript" contentStyleType="text/css" height="496px" preserveAspectRatio="none" style="width:264px;height:496px;" version="1.1" viewBox="0 0 264 496" width="264px" zoomAndPan="magnify"><defs><filter height="300%" id="f3xeic21dcrr1" width="300%" x="-1" y="-1"><feGaussianBlur result="blurOut" stdDeviation="2.0"/><feColorMatrix in="blurOut" result="blurOut2" type="matrix" values="0 0 0 0 0 0 0 0 0 0 0 0 0 0 0 0 0 0 .4 0"/><feOffset dx="4.0" dy="4.0" in="blurOut2" result="blurOut3"/><feBlend in="SourceGraphic" in2="blurOut3" mode="normal"/></filter></defs><g><rect fill="#FFFFFF" filter="url(#f3xeic21dcrr1)" height="270.1953" style="stroke: #A80036; stroke-width: 1.0;" width="10" x="105" y="112.5938"/><rect fill="#FFFFFF" filter="url(#f3xeic21dcrr1)" height="213.0625" style="stroke: #000000; stroke-width: 2.0;" width="230" x="12" y="162.7266"/><rect fill="#FFFFFF" filter="url(#f3xeic21dcrr1)" height="115.6641" style="stroke: #000000; stroke-width: 2.0;" width="204" x="22" y="186.8594"/><rect fill="#FFFFFF" height="35.1328" style="stroke: none; stroke-width: 1.0;" width="204" x="22" y="267.3906"/><rect fill="#FFFFFF" height="66.2656" style="stroke: none; stroke-width: 1.0;" width="230" x="12" y="309.5234"/><rect fill="#FFFFFF" filter="url(#f3xeic21dcrr1)" height="50.2656" style="stroke: #000000; stroke-width: 2.0;" width="172" x="60" y="318.5234"/><line style="stroke: #A80036; stroke-width: 1.0; stroke-dasharray: 5.0,5.0;" x1="110" x2="110" y1="102.5938" y2="392.7891"/><text fill="#000000" font-family="sans-serif" font-size="14" font-style="italic" lengthAdjust="spacingAndGlyphs" textLength="38" x="88" y="82.9951">«My»</text><text fill="#000000" font-family="sans-serif" font-size="14" lengthAdjust="spacingAndGlyphs" textLength="90" x="62" y="99.292">Main Service</text><ellipse cx="110" cy="13" fill="#FEFECE" filter="url(#f3xeic21dcrr1)" rx="8" ry="8" style="stroke: #A80036; stroke-width: 2.0;"/><path d="M110,21 L110,48 M97,29 L123,29 M110,48 L97,63 M110,48 L123,63 " fill="none" filter="url(#f3xeic21dcrr1)" style="stroke: #A80036; stroke-width: 2.0;"/><text fill="#000000" font-family="sans-serif" font-size="14" font-style="italic" lengthAdjust="spacingAndGlyphs" textLength="38" x="88" y="404.7842">«My»</text><text fill="#000000" font-family="sans-serif" font-size="14" lengthAdjust="spacingAndGlyphs" textLength="90" x="62" y="421.0811">Main Service</text><ellipse cx="110" cy="434.3828" fill="#FEFECE" filter="url(#f3xeic21dcrr1)" rx="8" ry="8" style="stroke: #A80036; stroke-width: 2.0;"/><path d="M110,442.3828 L110,469.3828 M97,450.3828 L123,450.3828 M110,469.3828 L97,484.3828 M110,469.3828 L123,484.3828 " fill="none" filter="url(#f3xeic21dcrr1)" style="stroke: #A80036; stroke-width: 2.0;"/><rect fill="#FFFFFF" filter="url(#f3xeic21dcrr1)" height="270.1953" style="stroke: #A80036; stroke-width: 1.0;" width="10" x="105" y="112.5938"/><rect fill="#EEEEEE" filter="url(#f3xeic21dcrr1)" height="3" style="stroke: #EEEEEE; stroke-width: 1.0;" width="249" x="3" y="133.1602"/><line style="stroke: #000000; stroke-width: 1.0;" x1="3" x2="252" y1="133.1602" y2="133.1602"/><line style="stroke: #000000; stroke-width: 1.0;" x1="3" x2="252" y1="136.1602" y2="136.1602"/><rect fill="#EEEEEE" filter="url(#f3xeic21dcrr1)" height="23.1328" style="stroke: #000000; stroke-width: 2.0;" width="67" x="94" y="122.5938"/><text fill="#000000" font-family="sans-serif" font-size="13" font-weight="bold" lengthAdjust="spacingAndGlyphs" textLength="48" x="100" y="138.6606">If-else</text><path d="M12,162.7266 L78,162.7266 L78,169.7266 L68,179.7266 L12,179.7266 L12,162.7266 " fill="#EEEEEE" style="stroke: #000000; stroke-width: 1.0;"/><rect fill="none" height="213.0625" style="stroke: #000000; stroke-width: 2.0;" width="230" x="12" y="162.7266"/><text fill="#000000" font-family="sans-serif" font-size="13" font-weight="bold" lengthAdjust="spacingAndGlyphs" textLength="21" x="27" y="175.7935">alt</text><text fill="#000000" font-family="sans-serif" font-size="11" font-weight="bold" lengthAdjust="spacingAndGlyphs" textLength="138" x="93" y="174.937">[the weather is nice]</text><path d="M22,186.8594 L88,186.8594 L88,193.8594 L78,203.8594 L22,203.8594 L22,186.8594 " fill="#EEEEEE" style="stroke: #000000; stroke-width: 1.0;"/><rect fill="none" height="115.6641" style="stroke: #000000; stroke-width: 2.0;" width="204" x="22" y="186.8594"/><text fill="#000000" font-family="sans-serif" font-size="13" font-weight="bold" lengthAdjust="spacingAndGlyphs" textLength="21" x="37" y="199.9263">alt</text><text fill="#000000" font-family="sans-serif" font-size="11" font-weight="bold" lengthAdjust="spacingAndGlyphs" textLength="118" x="103" y="199.0698">[it is over a 30°C]</text><polygon fill="#FBFB77" filter="url(#f3xeic21dcrr1)" points="42,208.9922,177,208.9922,187,234.9922,177,261.9922,42,261.9922,32,234.9922,42,208.9922" style="stroke: #A80036; stroke-width: 1.0;"/><text fill="#000000" font-family="sans-serif" font-size="13" lengthAdjust="spacingAndGlyphs" textLength="21" x="44" y="225.0591">do:</text><text fill="#000000" font-family="sans-serif" font-size="13" lengthAdjust="spacingAndGlyphs" textLength="48" x="60" y="240.1919">nothing</text><text fill="#000000" font-family="sans-serif" font-size="13" lengthAdjust="spacingAndGlyphs" textLength="115" x="60" y="255.3247">because its to hot</text><line style="stroke: #000000; stroke-width: 1.0; stroke-dasharray: 2.0,2.0;" x1="22" x2="226" y1="268.3906" y2="268.3906"/><polygon fill="#FBFB77" filter="url(#f3xeic21dcrr1)" points="60,274.3906,160,274.3906,170,285.3906,160,297.3906,60,297.3906,50,285.3906,60,274.3906" style="stroke: #A80036; stroke-width: 1.0;"/><text fill="#000000" font-family="sans-serif" font-size="13" lengthAdjust="spacingAndGlyphs" textLength="96" x="62" y="290.4575">do: some work</text><line style="stroke: #000000; stroke-width: 1.0; stroke-dasharray: 2.0,2.0;" x1="12" x2="242" y1="310.5234" y2="310.5234"/><path d="M60,318.5234 L126,318.5234 L126,325.5234 L116,335.5234 L60,335.5234 L60,318.5234 " fill="#EEEEEE" style="stroke: #000000; stroke-width: 1.0;"/><rect fill="none" height="50.2656" style="stroke: #000000; stroke-width: 2.0;" width="172" x="60" y="318.5234"/><text fill="#000000" font-family="sans-serif" font-size="13" font-weight="bold" lengthAdjust="spacingAndGlyphs" textLength="21" x="75" y="331.5903">alt</text><text fill="#000000" font-family="sans-serif" font-size="11" font-weight="bold" lengthAdjust="spacingAndGlyphs" textLength="86" x="141" y="330.7339">[it is raining]</text><polygon fill="#FBFB77" filter="url(#f3xeic21dcrr1)" points="80,340.6563,140,340.6563,150,351.6563,140,363.6563,80,363.6563,70,351.6563,80,340.6563" style="stroke: #A80036; stroke-width: 1.0;"/><text fill="#000000" font-family="sans-serif" font-size="13" lengthAdjust="spacingAndGlyphs" textLength="56" x="82" y="356.7231">do: work</text><!--MD5=[bdc578e43abc3475018ec48abf297518]
@startuml


== If-else ==

actor "Main Service" as MainService <<My>>

activate MainService
alt the weather is nice
    alt it is over a 30°C
        hnote over MainService
        do:
            nothing
            because its to hot
        end hnote
    else
        hnote over MainService
        do: some work
        end hnote
    end
else
    alt it is raining
        hnote over MainService
        do: work
        end hnote
    end
end

deactivate MainService
@enduml

PlantUML version 1.2020.18beta4(Unknown compile time)
(GPL source distribution)
Java Runtime: Java(TM) SE Runtime Environment
JVM: Java HotSpot(TM) 64-Bit Server VM
Default Encoding: UTF-8
Language: en
Country: US
--></g></svg>