<?xml version="1.0" encoding="UTF-8" standalone="no"?><svg xmlns="http://www.w3.org/2000/svg" xmlns:xlink="http://www.w3.org/1999/xlink" contentScriptType="application/ecmascript" contentStyleType="text/css" height="308px" preserveAspectRatio="none" style="width:144px;height:308px;" version="1.1" viewBox="0 0 144 308" width="144px" zoomAndPan="magnify"><defs><filter height="300%" id="f1bhu1ij1vanah" width="300%" x="-1" y="-1"><feGaussianBlur result="blurOut" stdDeviation="2.0"/><feColorMatrix in="blurOut" result="blurOut2" type="matrix" values="0 0 0 0 0 0 0 0 0 0 0 0 0 0 0 0 0 0 .4 0"/><feOffset dx="4.0" dy="4.0" in="blurOut2" result="blurOut3"/><feBlend in="SourceGraphic" in2="blurOut3" mode="normal"/></filter></defs><g><rect fill="#FFFFFF" filter="url(#f1bhu1ij1vanah)" height="82.2656" style="stroke: #A80036; stroke-width: 1.0;" width="10" x="62" y="112.5938"/><line style="stroke: #A80036; stroke-width: 1.0; stroke-dasharray: 5.0,5.0;" x1="67" x2="67" y1="102.5938" y2="204.8594"/><text fill="#000000" font-family="sans-serif" font-size="14" font-style="italic" lengthAdjust="spacingAndGlyphs" textLength="38" x="45" y="82.9951">«My»</text><text fill="#000000" font-family="sans-serif" font-size="14" lengthAdjust="spacingAndGlyphs" textLength="90" x="19" y="99.292">Main Service</text><ellipse cx="67" cy="13" fill="#FEFECE" filter="url(#f1bhu1ij1vanah)" rx="8" ry="8" style="stroke: #A80036; stroke-width: 2.0;"/><path d="M67,21 L67,48 M54,29 L80,29 M67,48 L54,63 M67,48 L80,63 " fill="none" filter="url(#f1bhu1ij1vanah)" style="stroke: #A80036; stroke-width: 2.0;"/><text fill="#000000" font-family="sans-serif" font-size="14" font-style="italic" lengthAdjust="spacingAndGlyphs" textLength="38" x="45" y="216.8545">«My»</text><text fill="#000000" font-family="sans-serif" font-size="14" lengthAdjust="spacingAndGlyphs" textLength="90" x="19" y="233.1514">Main Service</text><ellipse cx="67" cy="246.4531" fill="#FEFECE" filter="url(#f1bhu1ij1vanah)" rx="8" ry="8" style="stroke: #A80036; stroke-width: 2.0;"/><path d="M67,254.4531 L67,281.4531 M54,262.4531 L80,262.4531 M67,281.4531 L54,296.4531 M67,281.4531 L80,296.4531 " fill="none" filter="url(#f1bhu1ij1vanah)" style="stroke: #A80036; stroke-width: 2.0;"/><rect fill="#FFFFFF" filter="url(#f1bhu1ij1vanah)" height="82.2656" style="stroke: #A80036; stroke-width: 1.0;" width="10" x="62" y="112.5938"/><rect fill="#EEEEEE" filter="url(#f1bhu1ij1vanah)" height="3" style="stroke: #EEEEEE; stroke-width: 1.0;" width="129" x="3" y="133.1602"/><line style="stroke: #000000; stroke-width: 1.0;" x1="3" x2="132" y1="133.1602" y2="133.1602"/><line style="stroke: #000000; stroke-width: 1.0;" x1="3" x2="132" y1="136.1602" y2="136.1602"/><rect fill="#EEEEEE" filter="url(#f1bhu1ij1vanah)" height="23.1328" style="stroke: #000000; stroke-width: 2.0;" width="73" x="31" y="122.5938"/><text fill="#000000" font-family="sans-serif" font-size="13" font-weight="bold" lengthAdjust="spacingAndGlyphs" textLength="54" x="37" y="138.6606">Lifeline</text><path d="M8,160.7266 L8,185.7266 L123,185.7266 L123,170.7266 L113,160.7266 L8,160.7266 " fill="#FBFB77" filter="url(#f1bhu1ij1vanah)" style="stroke: #A80036; stroke-width: 1.0;"/><path d="M113,160.7266 L113,170.7266 L123,170.7266 L113,160.7266 " fill="#FBFB77" style="stroke: #A80036; stroke-width: 1.0;"/><text fill="#000000" font-family="sans-serif" font-size="13" lengthAdjust="spacingAndGlyphs" textLength="94" x="14" y="177.7935">this is a lifeline</text><!--MD5=[f1545d203b03fc9b2c22559375dbf9bb]
@startuml


== Lifeline ==

actor "Main Service" as MainService <<My>>

activate MainService
note over MainService: this is a lifeline

deactivate MainService
@enduml

PlantUML version 1.2020.18beta4(Unknown compile time)
(GPL source distribution)
Java Runtime: Java(TM) SE Runtime Environment
JVM: Java HotSpot(TM) 64-Bit Server VM
Default Encoding: UTF-8
Language: en
Country: US
--></g></svg>