<?xml version="1.0" encoding="UTF-8" standalone="no"?><svg xmlns="http://www.w3.org/2000/svg" xmlns:xlink="http://www.w3.org/1999/xlink" contentScriptType="application/ecmascript" contentStyleType="text/css" height="298px" preserveAspectRatio="none" style="width:285px;height:298px;" version="1.1" viewBox="0 0 285 298" width="285px" zoomAndPan="magnify"><defs><filter height="300%" id="fldbjtsm95mgj" width="300%" x="-1" y="-1"><feGaussianBlur result="blurOut" stdDeviation="2.0"/><feColorMatrix in="blurOut" result="blurOut2" type="matrix" values="0 0 0 0 0 0 0 0 0 0 0 0 0 0 0 0 0 0 .4 0"/><feOffset dx="4.0" dy="4.0" in="blurOut2" result="blurOut3"/><feBlend in="SourceGraphic" in2="blurOut3" mode="normal"/></filter></defs><g><rect fill="#FFFFFF" filter="url(#fldbjtsm95mgj)" height="64.2656" style="stroke: #A80036; stroke-width: 1.0;" width="10" x="51" y="112.5938"/><line style="stroke: #A80036; stroke-width: 1.0; stroke-dasharray: 5.0,5.0;" x1="56" x2="56" y1="102.5938" y2="194.8594"/><line style="stroke: #A80036; stroke-width: 1.0; stroke-dasharray: 5.0,5.0;" x1="191" x2="191" y1="102.5938" y2="194.8594"/><text fill="#000000" font-family="sans-serif" font-size="14" font-style="italic" lengthAdjust="spacingAndGlyphs" textLength="38" x="34" y="82.9951">«My»</text><text fill="#000000" font-family="sans-serif" font-size="14" lengthAdjust="spacingAndGlyphs" textLength="90" x="8" y="99.292">Main Service</text><ellipse cx="56" cy="13" fill="#FEFECE" filter="url(#fldbjtsm95mgj)" rx="8" ry="8" style="stroke: #A80036; stroke-width: 2.0;"/><path d="M56,21 L56,48 M43,29 L69,29 M56,48 L43,63 M56,48 L69,63 " fill="none" filter="url(#fldbjtsm95mgj)" style="stroke: #A80036; stroke-width: 2.0;"/><text fill="#000000" font-family="sans-serif" font-size="14" font-style="italic" lengthAdjust="spacingAndGlyphs" textLength="38" x="34" y="206.8545">«My»</text><text fill="#000000" font-family="sans-serif" font-size="14" lengthAdjust="spacingAndGlyphs" textLength="90" x="8" y="223.1514">Main Service</text><ellipse cx="56" cy="236.4531" fill="#FEFECE" filter="url(#fldbjtsm95mgj)" rx="8" ry="8" style="stroke: #A80036; stroke-width: 2.0;"/><path d="M56,244.4531 L56,271.4531 M43,252.4531 L69,252.4531 M56,271.4531 L43,286.4531 M56,271.4531 L69,286.4531 " fill="none" filter="url(#fldbjtsm95mgj)" style="stroke: #A80036; stroke-width: 2.0;"/><text fill="#000000" font-family="sans-serif" font-size="14" font-style="italic" lengthAdjust="spacingAndGlyphs" textLength="38" x="169" y="82.9951">«My»</text><text fill="#000000" font-family="sans-serif" font-size="14" lengthAdjust="spacingAndGlyphs" textLength="148" x="114" y="99.292">InteractionDatabase</text><path d="M173,34 C173,24 191,24 191,24 C191,24 209,24 209,34 L209,60 C209,70 191,70 191,70 C191,70 173,70 173,60 L173,34 " fill="#FEFECE" filter="url(#fldbjtsm95mgj)" style="stroke: #000000; stroke-width: 1.5;"/><path d="M173,34 C173,44 191,44 191,44 C191,44 209,44 209,34 " fill="none" style="stroke: #000000; stroke-width: 1.5;"/><text fill="#000000" font-family="sans-serif" font-size="14" font-style="italic" lengthAdjust="spacingAndGlyphs" textLength="38" x="169" y="206.8545">«My»</text><text fill="#000000" font-family="sans-serif" font-size="14" lengthAdjust="spacingAndGlyphs" textLength="148" x="114" y="223.1514">InteractionDatabase</text><path d="M173,236.4531 C173,226.4531 191,226.4531 191,226.4531 C191,226.4531 209,226.4531 209,236.4531 L209,262.4531 C209,272.4531 191,272.4531 191,272.4531 C191,272.4531 173,272.4531 173,262.4531 L173,236.4531 " fill="#FEFECE" filter="url(#fldbjtsm95mgj)" style="stroke: #000000; stroke-width: 1.5;"/><path d="M173,236.4531 C173,246.4531 191,246.4531 191,246.4531 C191,246.4531 209,246.4531 209,236.4531 " fill="none" style="stroke: #000000; stroke-width: 1.5;"/><rect fill="#FFFFFF" filter="url(#fldbjtsm95mgj)" height="64.2656" style="stroke: #A80036; stroke-width: 1.0;" width="10" x="51" y="112.5938"/><rect fill="#EEEEEE" filter="url(#fldbjtsm95mgj)" height="3" style="stroke: #EEEEEE; stroke-width: 1.0;" width="270" x="3" y="133.1602"/><line style="stroke: #000000; stroke-width: 1.0;" x1="3" x2="273" y1="133.1602" y2="133.1602"/><line style="stroke: #000000; stroke-width: 1.0;" x1="3" x2="273" y1="136.1602" y2="136.1602"/><rect fill="#EEEEEE" filter="url(#fldbjtsm95mgj)" height="23.1328" style="stroke: #000000; stroke-width: 2.0;" width="97" x="89.5" y="122.5938"/><text fill="#000000" font-family="sans-serif" font-size="13" font-weight="bold" lengthAdjust="spacingAndGlyphs" textLength="78" x="95.5" y="138.6606">Post Data</text><line style="stroke: #A80036; stroke-width: 1.0;" x1="189" x2="179" y1="176.8594" y2="172.8594"/><line style="stroke: #A80036; stroke-width: 1.0;" x1="189" x2="179" y1="176.8594" y2="180.8594"/><line style="stroke: #A80036; stroke-width: 1.0;" x1="56" x2="190" y1="176.8594" y2="176.8594"/><text fill="#000000" font-family="sans-serif" font-size="13" lengthAdjust="spacingAndGlyphs" textLength="105" x="63" y="171.7935">InteractionEntity</text><!--MD5=[e1e701dfc2c6e83b8a35bb6be438b270]
@startuml


== Post Data ==

actor "Main Service" as MainService <<My>>
database "InteractionDatabase" as InteractionDatabase <<My>>

activate MainService
MainService ->> InteractionDatabase: InteractionEntity

deactivate MainService
@enduml

PlantUML version 1.2020.18beta4(Unknown compile time)
(GPL source distribution)
Java Runtime: Java(TM) SE Runtime Environment
JVM: Java HotSpot(TM) 64-Bit Server VM
Default Encoding: UTF-8
Language: en
Country: US
--></g></svg>