<?xml version="1.0" encoding="UTF-8" standalone="no"?><svg xmlns="http://www.w3.org/2000/svg" xmlns:xlink="http://www.w3.org/1999/xlink" contentScriptType="application/ecmascript" contentStyleType="text/css" height="414px" preserveAspectRatio="none" style="width:425px;height:414px;" version="1.1" viewBox="0 0 425 414" width="425px" zoomAndPan="magnify"><defs><filter height="300%" id="f1rgs013ytp2cn" width="300%" x="-1" y="-1"><feGaussianBlur result="blurOut" stdDeviation="2.0"/><feColorMatrix in="blurOut" result="blurOut2" type="matrix" values="0 0 0 0 0 0 0 0 0 0 0 0 0 0 0 0 0 0 .4 0"/><feOffset dx="4.0" dy="4.0" in="blurOut2" result="blurOut3"/><feBlend in="SourceGraphic" in2="blurOut3" mode="normal"/></filter></defs><g><rect fill="#FFFFFF" filter="url(#f1rgs013ytp2cn)" height="180.7969" style="stroke: #A80036; stroke-width: 1.0;" width="10" x="51" y="112.5938"/><line style="stroke: #A80036; stroke-width: 1.0; stroke-dasharray: 5.0,5.0;" x1="56" x2="56" y1="102.5938" y2="311.3906"/><line style="stroke: #A80036; stroke-width: 1.0; stroke-dasharray: 5.0,5.0;" x1="191" x2="191" y1="102.5938" y2="311.3906"/><line style="stroke: #A80036; stroke-width: 1.0; stroke-dasharray: 5.0,5.0;" x1="343" x2="343" y1="102.5938" y2="311.3906"/><text fill="#000000" font-family="sans-serif" font-size="14" font-style="italic" lengthAdjust="spacingAndGlyphs" textLength="38" x="34" y="82.9951">«My»</text><text fill="#000000" font-family="sans-serif" font-size="14" lengthAdjust="spacingAndGlyphs" textLength="90" x="8" y="99.292">Main Service</text><ellipse cx="56" cy="13" fill="#FEFECE" filter="url(#f1rgs013ytp2cn)" rx="8" ry="8" style="stroke: #A80036; stroke-width: 2.0;"/><path d="M56,21 L56,48 M43,29 L69,29 M56,48 L43,63 M56,48 L69,63 " fill="none" filter="url(#f1rgs013ytp2cn)" style="stroke: #A80036; stroke-width: 2.0;"/><text fill="#000000" font-family="sans-serif" font-size="14" font-style="italic" lengthAdjust="spacingAndGlyphs" textLength="38" x="34" y="323.3857">«My»</text><text fill="#000000" font-family="sans-serif" font-size="14" lengthAdjust="spacingAndGlyphs" textLength="90" x="8" y="339.6826">Main Service</text><ellipse cx="56" cy="352.9844" fill="#FEFECE" filter="url(#f1rgs013ytp2cn)" rx="8" ry="8" style="stroke: #A80036; stroke-width: 2.0;"/><path d="M56,360.9844 L56,387.9844 M43,368.9844 L69,368.9844 M56,387.9844 L43,402.9844 M56,387.9844 L69,402.9844 " fill="none" filter="url(#f1rgs013ytp2cn)" style="stroke: #A80036; stroke-width: 2.0;"/><text fill="#000000" font-family="sans-serif" font-size="14" font-style="italic" lengthAdjust="spacingAndGlyphs" textLength="38" x="169" y="82.9951">«My»</text><text fill="#000000" font-family="sans-serif" font-size="14" lengthAdjust="spacingAndGlyphs" textLength="148" x="114" y="99.292">InteractionDatabase</text><path d="M173,34 C173,24 191,24 191,24 C191,24 209,24 209,34 L209,60 C209,70 191,70 191,70 C191,70 173,70 173,60 L173,34 " fill="#FEFECE" filter="url(#f1rgs013ytp2cn)" style="stroke: #000000; stroke-width: 1.5;"/><path d="M173,34 C173,44 191,44 191,44 C191,44 209,44 209,34 " fill="none" style="stroke: #000000; stroke-width: 1.5;"/><text fill="#000000" font-family="sans-serif" font-size="14" font-style="italic" lengthAdjust="spacingAndGlyphs" textLength="38" x="169" y="323.3857">«My»</text><text fill="#000000" font-family="sans-serif" font-size="14" lengthAdjust="spacingAndGlyphs" textLength="148" x="114" y="339.6826">InteractionDatabase</text><path d="M173,352.9844 C173,342.9844 191,342.9844 191,342.9844 C191,342.9844 209,342.9844 209,352.9844 L209,378.9844 C209,388.9844 191,388.9844 191,388.9844 C191,388.9844 173,388.9844 173,378.9844 L173,352.9844 " fill="#FEFECE" filter="url(#f1rgs013ytp2cn)" style="stroke: #000000; stroke-width: 1.5;"/><path d="M173,352.9844 C173,362.9844 191,362.9844 191,362.9844 C191,362.9844 209,362.9844 209,352.9844 " fill="none" style="stroke: #000000; stroke-width: 1.5;"/><text fill="#000000" font-family="sans-serif" font-size="14" font-style="italic" lengthAdjust="spacingAndGlyphs" textLength="38" x="321" y="82.9951">«My»</text><text fill="#000000" font-family="sans-serif" font-size="14" lengthAdjust="spacingAndGlyphs" textLength="124" x="278" y="99.292">InteractionCache</text><path d="M325,34 C325,24 343,24 343,24 C343,24 361,24 361,34 L361,60 C361,70 343,70 343,70 C343,70 325,70 325,60 L325,34 " fill="#FEFECE" filter="url(#f1rgs013ytp2cn)" style="stroke: #000000; stroke-width: 1.5;"/><path d="M325,34 C325,44 343,44 343,44 C343,44 361,44 361,34 " fill="none" style="stroke: #000000; stroke-width: 1.5;"/><text fill="#000000" font-family="sans-serif" font-size="14" font-style="italic" lengthAdjust="spacingAndGlyphs" textLength="38" x="321" y="323.3857">«My»</text><text fill="#000000" font-family="sans-serif" font-size="14" lengthAdjust="spacingAndGlyphs" textLength="124" x="278" y="339.6826">InteractionCache</text><path d="M325,352.9844 C325,342.9844 343,342.9844 343,342.9844 C343,342.9844 361,342.9844 361,352.9844 L361,378.9844 C361,388.9844 343,388.9844 343,388.9844 C343,388.9844 325,388.9844 325,378.9844 L325,352.9844 " fill="#FEFECE" filter="url(#f1rgs013ytp2cn)" style="stroke: #000000; stroke-width: 1.5;"/><path d="M325,352.9844 C325,362.9844 343,362.9844 343,362.9844 C343,362.9844 361,362.9844 361,352.9844 " fill="none" style="stroke: #000000; stroke-width: 1.5;"/><rect fill="#FFFFFF" filter="url(#f1rgs013ytp2cn)" height="180.7969" style="stroke: #A80036; stroke-width: 1.0;" width="10" x="51" y="112.5938"/><rect fill="#EEEEEE" filter="url(#f1rgs013ytp2cn)" height="3" style="stroke: #EEEEEE; stroke-width: 1.0;" width="410" x="3" y="133.1602"/><line style="stroke: #000000; stroke-width: 1.0;" x1="3" x2="413" y1="133.1602" y2="133.1602"/><line style="stroke: #000000; stroke-width: 1.0;" x1="3" x2="413" y1="136.1602" y2="136.1602"/><rect fill="#EEEEEE" filter="url(#f1rgs013ytp2cn)" height="23.1328" style="stroke: #000000; stroke-width: 2.0;" width="97" x="159.5" y="122.5938"/><text fill="#000000" font-family="sans-serif" font-size="13" font-weight="bold" lengthAdjust="spacingAndGlyphs" textLength="78" x="165.5" y="138.6606">Post Data</text><line style="stroke: #A80036; stroke-width: 1.0;" x1="189" x2="179" y1="176.8594" y2="172.8594"/><line style="stroke: #A80036; stroke-width: 1.0;" x1="189" x2="179" y1="176.8594" y2="180.8594"/><line style="stroke: #A80036; stroke-width: 1.0;" x1="61" x2="190" y1="176.8594" y2="176.8594"/><text fill="#000000" font-family="sans-serif" font-size="13" lengthAdjust="spacingAndGlyphs" textLength="105" x="68" y="171.7935">InteractionEntity</text><line style="stroke: #A80036; stroke-width: 1.0;" x1="341" x2="331" y1="205.9922" y2="201.9922"/><line style="stroke: #A80036; stroke-width: 1.0;" x1="341" x2="331" y1="205.9922" y2="209.9922"/><line style="stroke: #A80036; stroke-width: 1.0;" x1="61" x2="342" y1="205.9922" y2="205.9922"/><a href="" target="_top" title="InteractionEvent.Confirmed" xlink:actuate="onRequest" xlink:href="" xlink:show="new" xlink:title="InteractionEvent.Confirmed" xlink:type="simple"><text fill="#0000FF" font-family="sans-serif" font-size="13" lengthAdjust="spacingAndGlyphs" text-decoration="underline" textLength="67" x="68" y="200.9263">Confirmed</text></a><line style="stroke: #A80036; stroke-width: 1.0;" x1="341" x2="331" y1="235.125" y2="231.125"/><line style="stroke: #A80036; stroke-width: 1.0;" x1="341" x2="331" y1="235.125" y2="239.125"/><line style="stroke: #A80036; stroke-width: 1.0;" x1="61" x2="342" y1="235.125" y2="235.125"/><a href="" target="_top" title="InteractionEvent.Rejected" xlink:actuate="onRequest" xlink:href="" xlink:show="new" xlink:title="InteractionEvent.Rejected" xlink:type="simple"><text fill="#0000FF" font-family="sans-serif" font-size="13" lengthAdjust="spacingAndGlyphs" text-decoration="underline" textLength="56" x="68" y="230.0591">Rejected</text></a><line style="stroke: #A80036; stroke-width: 1.0;" x1="341" x2="331" y1="264.2578" y2="260.2578"/><line style="stroke: #A80036; stroke-width: 1.0;" x1="341" x2="331" y1="264.2578" y2="268.2578"/><line style="stroke: #A80036; stroke-width: 1.0;" x1="61" x2="342" y1="264.2578" y2="264.2578"/><a href="" target="_top" title="InteractionEvent.Rejected.Expired" xlink:actuate="onRequest" xlink:href="" xlink:show="new" xlink:title="InteractionEvent.Rejected.Expired" xlink:type="simple"><text fill="#0000FF" font-family="sans-serif" font-size="13" lengthAdjust="spacingAndGlyphs" text-decoration="underline" textLength="48" x="68" y="259.1919">Expired</text></a><line style="stroke: #A80036; stroke-width: 1.0;" x1="341" x2="331" y1="293.3906" y2="289.3906"/><line style="stroke: #A80036; stroke-width: 1.0;" x1="341" x2="331" y1="293.3906" y2="297.3906"/><line style="stroke: #A80036; stroke-width: 1.0;" x1="56" x2="342" y1="293.3906" y2="293.3906"/><a href="" target="_top" title="InteractionEvent.Rejected.Rejected" xlink:actuate="onRequest" xlink:href="" xlink:show="new" xlink:title="InteractionEvent.Rejected.Rejected" xlink:type="simple"><text fill="#0000FF" font-family="sans-serif" font-size="13" lengthAdjust="spacingAndGlyphs" text-decoration="underline" textLength="56" x="63" y="288.3247">Rejected</text></a><!--MD5=[0d2c079f3ee38a06756ff345bff5ee03]
@startuml


== Post Data ==

actor "Main Service" as MainService <<My>>
database "InteractionDatabase" as InteractionDatabase <<My>>
database "InteractionCache" as InteractionCache <<My>>

activate MainService
MainService ->> InteractionDatabase: InteractionEntity
MainService ->> InteractionCache: [[{InteractionEvent.Confirmed}Confirmed]]
MainService ->> InteractionCache: [[{InteractionEvent.Rejected}Rejected]]
MainService ->> InteractionCache: [[{InteractionEvent.Rejected.Expired}Expired]]
MainService ->> InteractionCache: [[{InteractionEvent.Rejected.Rejected}Rejected]]

deactivate MainService
@enduml

PlantUML version 1.2020.18beta4(Unknown compile time)
(GPL source distribution)
Java Runtime: Java(TM) SE Runtime Environment
JVM: Java HotSpot(TM) 64-Bit Server VM
Default Encoding: UTF-8
Language: en
Country: US
--></g></svg>