<?xml version="1.0" encoding="UTF-8" standalone="no"?><svg xmlns="http://www.w3.org/2000/svg" xmlns:xlink="http://www.w3.org/1999/xlink" contentScriptType="application/ecmascript" contentStyleType="text/css" height="524px" preserveAspectRatio="none" style="width:331px;height:524px;" version="1.1" viewBox="0 0 331 524" width="331px" zoomAndPan="magnify"><defs><filter height="300%" id="fll1ydq1cyjck" width="300%" x="-1" y="-1"><feGaussianBlur result="blurOut" stdDeviation="2.0"/><feColorMatrix in="blurOut" result="blurOut2" type="matrix" values="0 0 0 0 0 0 0 0 0 0 0 0 0 0 0 0 0 0 .4 0"/><feOffset dx="4.0" dy="4.0" in="blurOut2" result="blurOut3"/><feBlend in="SourceGraphic" in2="blurOut3" mode="normal"/></filter></defs><g><rect fill="#FFFFFF" filter="url(#fll1ydq1cyjck)" height="290.4609" style="stroke: #A80036; stroke-width: 1.0;" width="10" x="51" y="112.5938"/><rect fill="#FFFFFF" filter="url(#fll1ydq1cyjck)" height="68.2656" style="stroke: #A80036; stroke-width: 1.0;" width="10" x="221" y="176.8594"/><rect fill="#FFFFFF" filter="url(#fll1ydq1cyjck)" height="68.2656" style="stroke: #A80036; stroke-width: 1.0;" width="10" x="221" y="334.7891"/><line style="stroke: #A80036; stroke-width: 1.0; stroke-dasharray: 5.0,5.0;" x1="56" x2="56" y1="102.5938" y2="421.0547"/><line style="stroke: #A80036; stroke-width: 1.0; stroke-dasharray: 5.0,5.0;" x1="225.5" x2="225.5" y1="102.5938" y2="421.0547"/><text fill="#000000" font-family="sans-serif" font-size="14" font-style="italic" lengthAdjust="spacingAndGlyphs" textLength="38" x="34" y="82.9951">«My»</text><text fill="#000000" font-family="sans-serif" font-size="14" lengthAdjust="spacingAndGlyphs" textLength="90" x="8" y="99.292">Main Service</text><ellipse cx="56" cy="13" fill="#FEFECE" filter="url(#fll1ydq1cyjck)" rx="8" ry="8" style="stroke: #A80036; stroke-width: 2.0;"/><path d="M56,21 L56,48 M43,29 L69,29 M56,48 L43,63 M56,48 L69,63 " fill="none" filter="url(#fll1ydq1cyjck)" style="stroke: #A80036; stroke-width: 2.0;"/><text fill="#000000" font-family="sans-serif" font-size="14" font-style="italic" lengthAdjust="spacingAndGlyphs" textLength="38" x="34" y="433.0498">«My»</text><text fill="#000000" font-family="sans-serif" font-size="14" lengthAdjust="spacingAndGlyphs" textLength="90" x="8" y="449.3467">Main Service</text><ellipse cx="56" cy="462.6484" fill="#FEFECE" filter="url(#fll1ydq1cyjck)" rx="8" ry="8" style="stroke: #A80036; stroke-width: 2.0;"/><path d="M56,470.6484 L56,497.6484 M43,478.6484 L69,478.6484 M56,497.6484 L43,512.6484 M56,497.6484 L69,512.6484 " fill="none" filter="url(#fll1ydq1cyjck)" style="stroke: #A80036; stroke-width: 2.0;"/><rect fill="#FEFECE" filter="url(#fll1ydq1cyjck)" height="46.5938" style="stroke: #A80036; stroke-width: 1.5;" width="67" x="190.5" y="51"/><text fill="#000000" font-family="sans-serif" font-size="14" font-style="italic" lengthAdjust="spacingAndGlyphs" textLength="38" x="205" y="70.9951">«My»</text><text fill="#000000" font-family="sans-serif" font-size="14" lengthAdjust="spacingAndGlyphs" textLength="53" x="197.5" y="87.292">Service</text><rect fill="#FEFECE" filter="url(#fll1ydq1cyjck)" height="46.5938" style="stroke: #A80036; stroke-width: 1.5;" width="67" x="190.5" y="420.0547"/><text fill="#000000" font-family="sans-serif" font-size="14" font-style="italic" lengthAdjust="spacingAndGlyphs" textLength="38" x="205" y="440.0498">«My»</text><text fill="#000000" font-family="sans-serif" font-size="14" lengthAdjust="spacingAndGlyphs" textLength="53" x="197.5" y="456.3467">Service</text><rect fill="#FFFFFF" filter="url(#fll1ydq1cyjck)" height="290.4609" style="stroke: #A80036; stroke-width: 1.0;" width="10" x="51" y="112.5938"/><rect fill="#FFFFFF" filter="url(#fll1ydq1cyjck)" height="68.2656" style="stroke: #A80036; stroke-width: 1.0;" width="10" x="221" y="176.8594"/><rect fill="#FFFFFF" filter="url(#fll1ydq1cyjck)" height="68.2656" style="stroke: #A80036; stroke-width: 1.0;" width="10" x="221" y="334.7891"/><rect fill="#EEEEEE" filter="url(#fll1ydq1cyjck)" height="3" style="stroke: #EEEEEE; stroke-width: 1.0;" width="316" x="3" y="133.1602"/><line style="stroke: #000000; stroke-width: 1.0;" x1="3" x2="319" y1="133.1602" y2="133.1602"/><line style="stroke: #000000; stroke-width: 1.0;" x1="3" x2="319" y1="136.1602" y2="136.1602"/><rect fill="#EEEEEE" filter="url(#fll1ydq1cyjck)" height="23.1328" style="stroke: #000000; stroke-width: 2.0;" width="168" x="77" y="122.5938"/><text fill="#000000" font-family="sans-serif" font-size="13" font-weight="bold" lengthAdjust="spacingAndGlyphs" textLength="149" x="83" y="138.6606">Service Method Call</text><polygon fill="#A80036" points="209,172.8594,219,176.8594,209,180.8594,213,176.8594" style="stroke: #A80036; stroke-width: 1.0;"/><line style="stroke: #A80036; stroke-width: 1.0;" x1="61" x2="215" y1="176.8594" y2="176.8594"/><text fill="#000000" font-family="sans-serif" font-size="13" lengthAdjust="spacingAndGlyphs" textLength="89" x="68" y="171.7935">Method(Input)</text><path d="M138,189.8594 L138,214.8594 L310,214.8594 L310,199.8594 L300,189.8594 L138,189.8594 " fill="#FBFB77" filter="url(#fll1ydq1cyjck)" style="stroke: #A80036; stroke-width: 1.0;"/><path d="M300,189.8594 L300,199.8594 L310,199.8594 L300,189.8594 " fill="#FBFB77" style="stroke: #A80036; stroke-width: 1.0;"/><text fill="#000000" font-family="sans-serif" font-size="13" lengthAdjust="spacingAndGlyphs" textLength="151" x="144" y="206.9263">this is part of execution</text><polygon fill="#A80036" points="72,241.125,62,245.125,72,249.125,68,245.125" style="stroke: #A80036; stroke-width: 1.0;"/><line style="stroke: #A80036; stroke-width: 1.0; stroke-dasharray: 2.0,2.0;" x1="66" x2="225" y1="245.125" y2="245.125"/><text fill="#000000" font-family="sans-serif" font-size="13" lengthAdjust="spacingAndGlyphs" textLength="44" x="78" y="240.0591">Output</text><polygon fill="#A80036" points="209,330.7891,219,334.7891,209,338.7891,213,334.7891" style="stroke: #A80036; stroke-width: 1.0;"/><line style="stroke: #A80036; stroke-width: 1.0;" x1="61" x2="215" y1="334.7891" y2="334.7891"/><text fill="#000000" font-family="sans-serif" font-size="13" lengthAdjust="spacingAndGlyphs" textLength="141" x="68" y="269.1919">MethodWithMoreArgs(</text><text fill="#000000" font-family="sans-serif" font-size="13" lengthAdjust="spacingAndGlyphs" textLength="15" x="76" y="284.3247">Id,</text><text fill="#000000" font-family="sans-serif" font-size="13" lengthAdjust="spacingAndGlyphs" textLength="71" x="76" y="299.4575">int * string,</text><text fill="#000000" font-family="sans-serif" font-size="13" lengthAdjust="spacingAndGlyphs" textLength="32" x="76" y="314.5903">Input</text><text fill="#000000" font-family="sans-serif" font-size="13" lengthAdjust="spacingAndGlyphs" textLength="5" x="68" y="329.7231">)</text><path d="M138,347.7891 L138,372.7891 L310,372.7891 L310,357.7891 L300,347.7891 L138,347.7891 " fill="#FBFB77" filter="url(#fll1ydq1cyjck)" style="stroke: #A80036; stroke-width: 1.0;"/><path d="M300,347.7891 L300,357.7891 L310,357.7891 L300,347.7891 " fill="#FBFB77" style="stroke: #A80036; stroke-width: 1.0;"/><text fill="#000000" font-family="sans-serif" font-size="13" lengthAdjust="spacingAndGlyphs" textLength="151" x="144" y="364.856">this is part of execution</text><polygon fill="#A80036" points="67,399.0547,57,403.0547,67,407.0547,63,403.0547" style="stroke: #A80036; stroke-width: 1.0;"/><line style="stroke: #A80036; stroke-width: 1.0; stroke-dasharray: 2.0,2.0;" x1="61" x2="225" y1="403.0547" y2="403.0547"/><text fill="#000000" font-family="sans-serif" font-size="13" lengthAdjust="spacingAndGlyphs" textLength="44" x="73" y="397.9888">Output</text><!--MD5=[5882418b157a203d9622a7d943eb8a48]
@startuml


== Service Method Call ==

actor "Main Service" as MainService <<My>>
participant "Service" as Service <<My>>

activate MainService
MainService -> Service ++: Method(Input)
    note over Service: this is part of execution
Service - -> MainService - -: Output
MainService -> Service ++: MethodWithMoreArgs(\n  Id, \n  int * string, \n  Input\n)
    note over Service: this is part of execution
Service - -> MainService - -: Output

deactivate MainService
@enduml

PlantUML version 1.2020.18beta4(Unknown compile time)
(GPL source distribution)
Java Runtime: Java(TM) SE Runtime Environment
JVM: Java HotSpot(TM) 64-Bit Server VM
Default Encoding: UTF-8
Language: en
Country: US
--></g></svg>