<?xml version="1.0" encoding="UTF-8" standalone="no"?><svg xmlns="http://www.w3.org/2000/svg" xmlns:xlink="http://www.w3.org/1999/xlink" contentScriptType="application/ecmascript" contentStyleType="text/css" height="366px" preserveAspectRatio="none" style="width:279px;height:366px;" version="1.1" viewBox="0 0 279 366" width="279px" zoomAndPan="magnify"><defs><filter height="300%" id="ff54d978025lj" width="300%" x="-1" y="-1"><feGaussianBlur result="blurOut" stdDeviation="2.0"/><feColorMatrix in="blurOut" result="blurOut2" type="matrix" values="0 0 0 0 0 0 0 0 0 0 0 0 0 0 0 0 0 0 .4 0"/><feOffset dx="4.0" dy="4.0" in="blurOut2" result="blurOut3"/><feBlend in="SourceGraphic" in2="blurOut3" mode="normal"/></filter></defs><g><rect fill="#FFFFFF" filter="url(#ff54d978025lj)" height="132.5313" style="stroke: #A80036; stroke-width: 1.0;" width="10" x="51" y="112.5938"/><rect fill="#FFFFFF" filter="url(#ff54d978025lj)" height="68.2656" style="stroke: #A80036; stroke-width: 1.0;" width="10" x="169" y="176.8594"/><line style="stroke: #A80036; stroke-width: 1.0; stroke-dasharray: 5.0,5.0;" x1="56" x2="56" y1="102.5938" y2="263.125"/><line style="stroke: #A80036; stroke-width: 1.0; stroke-dasharray: 5.0,5.0;" x1="173.5" x2="173.5" y1="102.5938" y2="263.125"/><text fill="#000000" font-family="sans-serif" font-size="14" font-style="italic" lengthAdjust="spacingAndGlyphs" textLength="38" x="34" y="82.9951">«My»</text><text fill="#000000" font-family="sans-serif" font-size="14" lengthAdjust="spacingAndGlyphs" textLength="90" x="8" y="99.292">Main Service</text><ellipse cx="56" cy="13" fill="#FEFECE" filter="url(#ff54d978025lj)" rx="8" ry="8" style="stroke: #A80036; stroke-width: 2.0;"/><path d="M56,21 L56,48 M43,29 L69,29 M56,48 L43,63 M56,48 L69,63 " fill="none" filter="url(#ff54d978025lj)" style="stroke: #A80036; stroke-width: 2.0;"/><text fill="#000000" font-family="sans-serif" font-size="14" font-style="italic" lengthAdjust="spacingAndGlyphs" textLength="38" x="34" y="275.1201">«My»</text><text fill="#000000" font-family="sans-serif" font-size="14" lengthAdjust="spacingAndGlyphs" textLength="90" x="8" y="291.417">Main Service</text><ellipse cx="56" cy="304.7188" fill="#FEFECE" filter="url(#ff54d978025lj)" rx="8" ry="8" style="stroke: #A80036; stroke-width: 2.0;"/><path d="M56,312.7188 L56,339.7188 M43,320.7188 L69,320.7188 M56,339.7188 L43,354.7188 M56,339.7188 L69,354.7188 " fill="none" filter="url(#ff54d978025lj)" style="stroke: #A80036; stroke-width: 2.0;"/><rect fill="#FEFECE" filter="url(#ff54d978025lj)" height="46.5938" style="stroke: #A80036; stroke-width: 1.5;" width="67" x="138.5" y="51"/><text fill="#000000" font-family="sans-serif" font-size="14" font-style="italic" lengthAdjust="spacingAndGlyphs" textLength="38" x="153" y="70.9951">«My»</text><text fill="#000000" font-family="sans-serif" font-size="14" lengthAdjust="spacingAndGlyphs" textLength="53" x="145.5" y="87.292">Service</text><rect fill="#FEFECE" filter="url(#ff54d978025lj)" height="46.5938" style="stroke: #A80036; stroke-width: 1.5;" width="67" x="138.5" y="262.125"/><text fill="#000000" font-family="sans-serif" font-size="14" font-style="italic" lengthAdjust="spacingAndGlyphs" textLength="38" x="153" y="282.1201">«My»</text><text fill="#000000" font-family="sans-serif" font-size="14" lengthAdjust="spacingAndGlyphs" textLength="53" x="145.5" y="298.417">Service</text><rect fill="#FFFFFF" filter="url(#ff54d978025lj)" height="132.5313" style="stroke: #A80036; stroke-width: 1.0;" width="10" x="51" y="112.5938"/><rect fill="#FFFFFF" filter="url(#ff54d978025lj)" height="68.2656" style="stroke: #A80036; stroke-width: 1.0;" width="10" x="169" y="176.8594"/><rect fill="#EEEEEE" filter="url(#ff54d978025lj)" height="3" style="stroke: #EEEEEE; stroke-width: 1.0;" width="264" x="3" y="133.1602"/><line style="stroke: #000000; stroke-width: 1.0;" x1="3" x2="267" y1="133.1602" y2="133.1602"/><line style="stroke: #000000; stroke-width: 1.0;" x1="3" x2="267" y1="136.1602" y2="136.1602"/><rect fill="#EEEEEE" filter="url(#ff54d978025lj)" height="23.1328" style="stroke: #000000; stroke-width: 2.0;" width="168" x="51" y="122.5938"/><text fill="#000000" font-family="sans-serif" font-size="13" font-weight="bold" lengthAdjust="spacingAndGlyphs" textLength="149" x="57" y="138.6606">Service Method Call</text><polygon fill="#A80036" points="157,172.8594,167,176.8594,157,180.8594,161,176.8594" style="stroke: #A80036; stroke-width: 1.0;"/><line style="stroke: #A80036; stroke-width: 1.0;" x1="61" x2="163" y1="176.8594" y2="176.8594"/><text fill="#000000" font-family="sans-serif" font-size="13" lengthAdjust="spacingAndGlyphs" textLength="89" x="68" y="171.7935">Method(Input)</text><path d="M86,189.8594 L86,214.8594 L258,214.8594 L258,199.8594 L248,189.8594 L86,189.8594 " fill="#FBFB77" filter="url(#ff54d978025lj)" style="stroke: #A80036; stroke-width: 1.0;"/><path d="M248,189.8594 L248,199.8594 L258,199.8594 L248,189.8594 " fill="#FBFB77" style="stroke: #A80036; stroke-width: 1.0;"/><text fill="#000000" font-family="sans-serif" font-size="13" lengthAdjust="spacingAndGlyphs" textLength="151" x="92" y="206.9263">this is part of execution</text><polygon fill="#A80036" points="67,241.125,57,245.125,67,249.125,63,245.125" style="stroke: #A80036; stroke-width: 1.0;"/><line style="stroke: #A80036; stroke-width: 1.0; stroke-dasharray: 2.0,2.0;" x1="61" x2="173" y1="245.125" y2="245.125"/><text fill="#000000" font-family="sans-serif" font-size="13" lengthAdjust="spacingAndGlyphs" textLength="44" x="73" y="240.0591">Output</text><!--MD5=[0c6936ee2516bcd5fe665e3f8acf8eff]
@startuml


== Service Method Call ==

actor "Main Service" as MainService <<My>>
participant "Service" as Service <<My>>

activate MainService
MainService -> Service ++: Method(Input)
    note over Service: this is part of execution
Service - -> MainService - -: Output

deactivate MainService
@enduml

PlantUML version 1.2020.17(Sat Sep 19 12:30:11 UTC 2020)
(GPL source distribution)
Java Runtime: Java(TM) SE Runtime Environment
JVM: Java HotSpot(TM) 64-Bit Server VM
Default Encoding: UTF-8
Language: en
Country: US
--></g></svg>