<?xml version="1.0" encoding="utf-8"?>
<!-- Generator: Adobe Illustrator 24.3.0, SVG Export Plug-In . SVG Version: 6.00 Build 0)  -->
<svg version="1.1" id="Vrstva_1" xmlns="http://www.w3.org/2000/svg" xmlns:xlink="http://www.w3.org/1999/xlink" x="0px" y="0px"
	 viewBox="0 0 32 32" style="enable-background:new 0 0 32 32;" xml:space="preserve">
<style type="text/css">
	.st0{fill:#2EB9DB;}
	.st1{fill:#388BBA;}
</style>
<path class="st0" d="M8.87,14.4c0,1.17,0.18,2.31,0.51,3.37C9.49,18.2,9.64,18.61,9.83,19c1.11,2.29,3.46,3.86,6.17,3.86
	c3.79,0,6.86-3.07,6.86-6.86c0-0.61-0.08-1.21-0.23-1.77c0.33,1.07,0.51,2.2,0.51,3.37c0,3.22-1.33,6.13-3.48,8.21
	c-2.06,1.99-4.86,3.22-7.95,3.22c-4.55,0-8.48-2.66-10.32-6.5c-0.27-0.61-0.51-1.25-0.71-1.9C0.24,19.16,0,17.61,0,16
	C0,7.16,7.16,0,16,0c6.51,0,12.12,3.89,14.61,9.47c-1.84-3.85-5.77-6.5-10.32-6.5c-3.09,0-5.89,1.23-7.95,3.22
	C10.2,8.27,8.87,11.18,8.87,14.4z"/>
<path class="st1" d="M32,16c0,8.84-7.16,16-16,16c-6.51,0-12.12-3.89-14.61-9.47c1.84,3.85,5.77,6.5,10.32,6.5
	c3.09,0,5.89-1.23,7.95-3.22c2.14-2.08,3.48-4.99,3.48-8.21c0-1.17-0.18-2.31-0.51-3.37c-0.11-0.43-0.27-0.83-0.46-1.22
	c-1.11-2.29-3.46-3.86-6.17-3.86c-3.79,0-6.86,3.07-6.86,6.86c0,0.61,0.08,1.21,0.23,1.77c-0.33-1.07-0.51-2.2-0.51-3.37
	c0-3.22,1.33-6.13,3.48-8.21c2.06-1.99,4.86-3.22,7.95-3.22c4.55,0,8.48,2.66,10.32,6.5c0.27,0.61,0.51,1.25,0.71,1.9
	C31.76,12.84,32,14.39,32,16z"/>
</svg>
